<svg xmlns="http://www.w3.org/2000/svg" viewBox="0 0 640 360"><defs><linearGradient id="bg" x1="0" y1="0" x2="1" y2="1"><stop offset="0" stop-color="#81c995"/><stop offset="1" stop-color="#0d652d"/></linearGradient><filter id="sh" x="-20%" y="-20%" width="140%" height="160%"><feDropShadow dx="0" dy="10" stdDeviation="12" flood-color="#000" flood-opacity=".28"/></filter></defs><rect width="640" height="360" fill="url(#bg)"/>
<g filter="url(#sh)"><rect x="232" y="24" width="176" height="336" rx="28" fill="#202124"/><rect x="242" y="36" width="156" height="312" rx="20" fill="#fff"/></g>
<rect x="242" y="36" width="156" height="42" rx="20" fill="#e6f4ea"/><rect x="242" y="60" width="156" height="18" fill="#e6f4ea"/>
<circle cx="264" cy="58" r="10" fill="#34a853"/><rect x="282" y="52" width="60" height="7" rx="3.5" fill="#137333"/><rect x="282" y="63" width="36" height="5" rx="2.5" fill="#81c995"/>
<rect x="254" y="92" width="96" height="30" rx="12" fill="#f1f3f4"/><rect x="264" y="102" width="70" height="6" rx="3" fill="#9aa0a6"/><rect x="264" y="112" width="44" height="5" rx="2.5" fill="#bdc1c6"/>
<rect x="300" y="132" width="86" height="26" rx="12" fill="#34a853"/><rect x="312" y="142" width="60" height="6" rx="3" fill="#fff"/>
<rect x="254" y="168" width="104" height="58" rx="12" fill="#f1f3f4"/><rect x="262" y="176" width="88" height="42" rx="8" fill="#dadce0"/><path d="M306 190a8 8 0 0 0-8 8c0 6 8 14 8 14s8-8 8-14a8 8 0 0 0-8-8z" fill="#ea4335"/><circle cx="306" cy="198" r="3" fill="#fff"/>
<rect x="296" y="236" width="90" height="36" rx="12" fill="#34a853"/><rect x="306" y="244" width="20" height="20" rx="4" fill="#fff" opacity=".9"/><rect x="332" y="248" width="44" height="5" rx="2.5" fill="#fff"/><rect x="332" y="257" width="28" height="5" rx="2.5" fill="#c6e7ce"/>
<rect x="252" y="314" width="136" height="24" rx="12" fill="#f1f3f4"/><circle cx="376" cy="326" r="9" fill="#34a853"/>
<g filter="url(#sh)"><rect x="440" y="70" width="150" height="52" rx="14" fill="#fff"/><circle cx="464" cy="96" r="12" fill="#fbbc05"/><path d="M464 89v8M464 101v1" stroke="#202124" stroke-width="2.5" stroke-linecap="round"/><rect x="484" y="88" width="90" height="7" rx="3.5" fill="#3c4043"/><rect x="484" y="100" width="60" height="6" rx="3" fill="#bdc1c6"/></g></svg>