<svg xmlns="http://www.w3.org/2000/svg" viewBox="0 0 640 360" width="640" height="360">
<defs><linearGradient id="bg" x1="0" y1="0" x2="1" y2="1"><stop offset="0" stop-color="#81c995"/><stop offset="1" stop-color="#137333"/></linearGradient>
<filter id="sh" x="-20%" y="-20%" width="140%" height="160%"><feDropShadow dx="0" dy="10" stdDeviation="12" flood-color="#000" flood-opacity=".28"/></filter></defs>
<rect width="640" height="360" fill="url(#bg)"/>

<g filter="url(#sh)"><g><rect x="70" y="70" width="140" height="52" rx="14" fill="#fff"/><circle cx="96" cy="96" r="12" fill="#34a853"/><path d="M90 96l4 4 8-8" stroke="#fff" stroke-width="3" fill="none" stroke-linecap="round" stroke-linejoin="round"/><rect x="116" y="91" width="60" height="9" rx="4.5" fill="#3c4043"/></g><g><rect x="250" y="70" width="140" height="52" rx="14" fill="#fff"/><circle cx="276" cy="96" r="12" fill="#34a853"/><path d="M270 96l4 4 8-8" stroke="#fff" stroke-width="3" fill="none" stroke-linecap="round" stroke-linejoin="round"/><rect x="296" y="91" width="50" height="9" rx="4.5" fill="#3c4043"/></g><g><rect x="430" y="70" width="140" height="52" rx="14" fill="#fff"/><circle cx="456" cy="96" r="12" fill="#34a853"/><path d="M450 96l4 4 8-8" stroke="#fff" stroke-width="3" fill="none" stroke-linecap="round" stroke-linejoin="round"/><rect x="476" y="91" width="70" height="9" rx="4.5" fill="#3c4043"/></g></g>
<g stroke="#fff" stroke-width="3" stroke-linecap="round" opacity=".9"><path d="M216 96h28M396 96h28"/></g>
<g filter="url(#sh)"><rect x="110" y="160" width="420" height="160" rx="18" fill="#fff"/><g><circle cx="140" cy="196" r="9" fill="#e6f4ea"/><path d="M135 196l3.5 3.5 6-6" stroke="#188038" stroke-width="2.5" fill="none" stroke-linecap="round"/><rect x="160" y="192" width="200" height="8" rx="4" fill="#bdc1c6"/><rect x="430" y="190" width="46" height="12" rx="6" fill="#e6f4ea"/></g><g><circle cx="140" cy="226" r="9" fill="#e6f4ea"/><path d="M135 226l3.5 3.5 6-6" stroke="#188038" stroke-width="2.5" fill="none" stroke-linecap="round"/><rect x="160" y="222" width="160" height="8" rx="4" fill="#bdc1c6"/><rect x="430" y="220" width="46" height="12" rx="6" fill="#e6f4ea"/></g><g><circle cx="140" cy="256" r="9" fill="#e6f4ea"/><path d="M135 256l3.5 3.5 6-6" stroke="#188038" stroke-width="2.5" fill="none" stroke-linecap="round"/><rect x="160" y="252" width="230" height="8" rx="4" fill="#bdc1c6"/><rect x="430" y="250" width="46" height="12" rx="6" fill="#e6f4ea"/></g><g><circle cx="140" cy="286" r="9" fill="#e6f4ea"/><path d="M135 286l3.5 3.5 6-6" stroke="#188038" stroke-width="2.5" fill="none" stroke-linecap="round"/><rect x="160" y="282" width="180" height="8" rx="4" fill="#bdc1c6"/><rect x="430" y="280" width="46" height="12" rx="6" fill="#e6f4ea"/></g></g>
<g filter="url(#sh)"><rect x="470" y="136" width="120" height="44" rx="22" fill="#fbbc05"/><rect x="490" y="152" width="80" height="12" rx="6" fill="#3c4043"/></g>
</svg>